# xmcd CD database file
#
# Track frame offsets:
#	150
#	60606
#	97939
#	119260
#	139049
#	170413
#	205808
#	220704
#	235978
#	252920
#	270303
#	286500
#	302377
#
# Disc length: 4187 seconds
#
# Revision: 0
# Processed by: cddbd v1.5.2PL0 Copyright (c) Steve Scherf et al.
# Submitted via: CDex 1.51
#
DISCID=a910590d
DTITLE=Davis, Miles, All Stars - Walkin'
DYEAR=2014
DGENRE=Jazz
TTITLE0=Walkin'
TTITLE1=Blue 'N' Boogie
TTITLE2=Solar
TTITLE3=You Don't Know What Love is
TTITLE4=Love Me Or Leave Me
TTITLE5=I'll Remember April (bonus)
TTITLE6=Kelo (bonus)
TTITLE7=Enigma (bonus)
TTITLE8=Ray's Idea (bonus)
TTITLE9=Tempus Fugit (bonus)
TTITLE10=C.T.A. (bonus)
TTITLE11=I Waited For You (bonus)
TTITLE12=Walkin' (alternate version)(bonus)
EXTD=YEAR: 2014
EXTT0=
EXTT1=
EXTT2=
EXTT3=
EXTT4=
EXTT5=
EXTT6=
EXTT7=
EXTT8=
EXTT9=
EXTT10=
EXTT11=
EXTT12=
PLAYORDER=
